<?xml version="1.0" standalone="no"?><!DOCTYPE svg PUBLIC "-//W3C//DTD SVG 1.1//EN" "http://www.w3.org/Graphics/SVG/1.1/DTD/svg11.dtd"><svg t="1753082366730" class="icon" viewBox="0 0 1024 1024" version="1.1" xmlns="http://www.w3.org/2000/svg" p-id="7804" xmlns:xlink="http://www.w3.org/1999/xlink" width="256" height="256"><path d="M752 169.6a64 64 0 0 1 64 64v576a64 64 0 0 1-64 64h-480a64 64 0 0 1-64-64v-576a64 64 0 0 1 64-64h480z m0 56h-480a8 8 0 0 0-7.776 6.176L264 233.6v576a8 8 0 0 0 6.176 7.776l1.824 0.224h480a8 8 0 0 0 7.776-6.176l0.224-1.824v-576a8 8 0 0 0-6.176-7.776L752 225.6z m-92.544 394.4c3.392 0 6.144 2.752 6.144 6.144v21.856a28 28 0 0 1-28 28h-273.056a6.144 6.144 0 0 1-6.144-6.144v-21.856c0-15.456 12.544-28 28-28h273.056z m0-136c3.392 0 6.144 2.752 6.144 6.144V512a28 28 0 0 1-28 28h-273.056a6.144 6.144 0 0 1-6.144-6.144V512c0-15.456 12.544-28 28-28h273.056z m0-136c3.392 0 6.144 2.752 6.144 6.144v21.856a28 28 0 0 1-28 28h-273.056a6.144 6.144 0 0 1-6.144-6.144v-21.856c0-15.456 12.544-28 28-28h273.056z" fill="#FF6A00" p-id="7805"></path></svg>